<mxfile host="65bd71144e">
    <diagram id="fjN8D4Odn0497USpxgly" name="Page-1">
        <mxGraphModel dx="2012" dy="1492" grid="1" gridSize="10" guides="1" tooltips="1" connect="1" arrows="1" fold="1" page="1" pageScale="1" pageWidth="1169" pageHeight="827" background="#FFFFFF" math="0" shadow="0">
            <root>
                <mxCell id="0"/>
                <mxCell id="1" parent="0"/>
                <mxCell id="274" value="" style="rounded=0;whiteSpace=wrap;html=1;strokeColor=none;" parent="1" vertex="1">
                    <mxGeometry x="-1160" y="-60" width="750" height="400" as="geometry"/>
                </mxCell>
                <mxCell id="253" style="edgeStyle=elbowEdgeStyle;rounded=0;html=1;" parent="1" source="281" target="255" edge="1">
                    <mxGeometry relative="1" as="geometry">
                        <mxPoint x="-980" y="80" as="sourcePoint"/>
                    </mxGeometry>
                </mxCell>
                <mxCell id="254" style="edgeStyle=elbowEdgeStyle;rounded=0;html=1;" parent="1" source="255" target="258" edge="1">
                    <mxGeometry relative="1" as="geometry">
                        <mxPoint x="-159" y="404" as="targetPoint"/>
                    </mxGeometry>
                </mxCell>
                <mxCell id="255" value="Search for &quot;config&quot; configuration schema&lt;br&gt;in &quot;app&quot; root group" style="rounded=0;whiteSpace=wrap;html=1;" parent="1" vertex="1">
                    <mxGeometry x="-980" y="55" width="130" height="60" as="geometry"/>
                </mxCell>
                <mxCell id="256" value="No" style="edgeStyle=elbowEdgeStyle;rounded=0;html=1;" parent="1" source="258" target="259" edge="1">
                    <mxGeometry relative="1" as="geometry">
                        <mxPoint x="-59" y="444" as="targetPoint"/>
                        <mxPoint as="offset"/>
                    </mxGeometry>
                </mxCell>
                <mxCell id="257" value="Yes" style="edgeStyle=elbowEdgeStyle;rounded=0;html=1;" parent="1" source="258" target="276" edge="1">
                    <mxGeometry relative="1" as="geometry">
                        <mxPoint x="-159" y="514" as="targetPoint"/>
                    </mxGeometry>
                </mxCell>
                <mxCell id="258" value="Found cs" style="rhombus;whiteSpace=wrap;html=1;" parent="1" vertex="1">
                    <mxGeometry x="-810" y="45" width="80" height="80" as="geometry"/>
                </mxCell>
                <mxCell id="259" value="Return&lt;br&gt;ENOTFOUND" style="rounded=1;whiteSpace=wrap;html=1;arcSize=50;" parent="1" vertex="1">
                    <mxGeometry x="-830" y="-50" width="120" height="60" as="geometry"/>
                </mxCell>
                <mxCell id="265" value="All configuration parameters are exported" style="rounded=1;whiteSpace=wrap;html=1;arcSize=50;" parent="1" vertex="1">
                    <mxGeometry x="-640" y="229.25" width="150" height="71" as="geometry"/>
                </mxCell>
                <mxCell id="275" style="edgeStyle=elbowEdgeStyle;rounded=0;html=1;" parent="1" source="276" target="279" edge="1">
                    <mxGeometry relative="1" as="geometry">
                        <mxPoint x="-480" y="635" as="targetPoint"/>
                    </mxGeometry>
                </mxCell>
                <mxCell id="276" value="Search for &quot;0&quot; schema instance" style="rounded=0;whiteSpace=wrap;html=1;" parent="1" vertex="1">
                    <mxGeometry x="-690" y="55" width="130" height="60" as="geometry"/>
                </mxCell>
                <mxCell id="277" value="No" style="edgeStyle=elbowEdgeStyle;rounded=0;html=1;" parent="1" source="279" target="280" edge="1">
                    <mxGeometry relative="1" as="geometry">
                        <mxPoint x="-380" y="675" as="targetPoint"/>
                        <mxPoint as="offset"/>
                    </mxGeometry>
                </mxCell>
                <mxCell id="278" value="Yes" style="edgeStyle=orthogonalEdgeStyle;html=1;strokeColor=default;curved=1;entryX=0;entryY=0.5;entryDx=0;entryDy=0;" parent="1" source="279" target="282" edge="1">
                    <mxGeometry x="-0.9882" y="-9" relative="1" as="geometry">
                        <mxPoint x="-400" y="85" as="targetPoint"/>
                        <mxPoint as="offset"/>
                        <Array as="points">
                            <mxPoint x="-481" y="140"/>
                            <mxPoint x="-1100" y="140"/>
                            <mxPoint x="-1100" y="265"/>
                        </Array>
                    </mxGeometry>
                </mxCell>
                <mxCell id="279" value="Found si" style="rhombus;whiteSpace=wrap;html=1;" parent="1" vertex="1">
                    <mxGeometry x="-521" y="45" width="80" height="80" as="geometry"/>
                </mxCell>
                <mxCell id="280" value="Return&lt;br&gt;ENOTFOUND" style="rounded=1;whiteSpace=wrap;html=1;arcSize=50;" parent="1" vertex="1">
                    <mxGeometry x="-541" y="-50" width="120" height="60" as="geometry"/>
                </mxCell>
                <mxCell id="281" value="&lt;div style=&quot;text-align: left&quot;&gt;&lt;span&gt;registry_export&lt;/span&gt;&lt;span style=&quot;text-align: left&quot;&gt;(&lt;/span&gt;&lt;/div&gt;&lt;span&gt;&lt;div style=&quot;text-align: left&quot;&gt;&lt;span&gt;&lt;i&gt;&amp;nbsp; &amp;nbsp; &quot;app/config/0&quot;,&lt;/i&gt;&lt;/span&gt;&lt;/div&gt;&lt;div style=&quot;text-align: left&quot;&gt;&lt;span&gt;&lt;i&gt;&amp;nbsp; &amp;nbsp; my_export_function&lt;/i&gt;&lt;/span&gt;&lt;/div&gt;&lt;/span&gt;&lt;div style=&quot;text-align: left&quot;&gt;&lt;span&gt;)&lt;/span&gt;&lt;/div&gt;" style="rounded=0;whiteSpace=wrap;html=1;" parent="1" vertex="1">
                    <mxGeometry x="-1150" y="50" width="130" height="70" as="geometry"/>
                </mxCell>
                <mxCell id="282" value="" style="rounded=0;whiteSpace=wrap;html=1;verticalAlign=top;" vertex="1" parent="1">
                    <mxGeometry x="-1050" y="200" width="370" height="130" as="geometry"/>
                </mxCell>
                <mxCell id="283" value="" style="edgeStyle=elbowEdgeStyle;rounded=0;html=1;exitX=1;exitY=0.5;exitDx=0;exitDy=0;" edge="1" parent="1" source="285" target="286">
                    <mxGeometry relative="1" as="geometry">
                        <mxPoint x="-890" y="165" as="targetPoint"/>
                        <mxPoint as="offset"/>
                        <mxPoint x="-933" y="306.75" as="sourcePoint"/>
                    </mxGeometry>
                </mxCell>
                <mxCell id="284" value="my_export_function(param, value)" style="rounded=0;whiteSpace=wrap;html=1;" vertex="1" parent="1">
                    <mxGeometry x="-880" y="280" width="190" height="40" as="geometry"/>
                </mxCell>
                <mxCell id="285" value="Foreach config parameter in cs as&lt;br&gt;&lt;b&gt;param&lt;/b&gt;" style="shape=hexagon;perimeter=hexagonPerimeter2;whiteSpace=wrap;html=1;fixedSize=1;" vertex="1" parent="1">
                    <mxGeometry x="-1043" y="224.5" width="120" height="80.5" as="geometry"/>
                </mxCell>
                <mxCell id="286" value="value = cs-&amp;gt;get(&lt;i&gt;param.id&lt;/i&gt;)" style="rounded=0;whiteSpace=wrap;html=1;" vertex="1" parent="1">
                    <mxGeometry x="-880" y="210" width="190" height="40" as="geometry"/>
                </mxCell>
                <mxCell id="287" value="" style="edgeStyle=elbowEdgeStyle;rounded=0;html=1;" edge="1" parent="1" source="286" target="284">
                    <mxGeometry relative="1" as="geometry">
                        <mxPoint x="-870" y="274.75" as="targetPoint"/>
                        <mxPoint as="offset"/>
                        <mxPoint x="-913" y="274.75" as="sourcePoint"/>
                    </mxGeometry>
                </mxCell>
                <mxCell id="288" style="edgeStyle=elbowEdgeStyle;rounded=0;html=1;" edge="1" parent="1" source="282" target="265">
                    <mxGeometry relative="1" as="geometry">
                        <mxPoint x="-661" y="264.15999999999985" as="targetPoint"/>
                        <mxPoint x="-700" y="264.15999999999985" as="sourcePoint"/>
                    </mxGeometry>
                </mxCell>
            </root>
        </mxGraphModel>
    </diagram>
</mxfile>